/* XPM */
static const char *iconOutputParam[]={
"20 20 40 1",
". c None",
"v c #000000",
"C c #0c0c0c",
"x c #131313",
"z c #141414",
"E c #202020",
"t c #242424",
"A c #2f2f2f",
"w c #303030",
"K c #373737",
"L c #3f3f3f",
"H c #535353",
"B c #555555",
"F c #575757",
"u c #606060",
"s c #6a6a6a",
"D c #737373",
"q c #777777",
"o c #797979",
"y c #7b7b7b",
"b c #7e7e7e",
"l c #7f7f7f",
"e c #808080",
"p c #878787",
"n c #979797",
"c c #989898",
"h c #9d9d9d",
"J c #9f9f9f",
"i c #a5a5a5",
"# c #a8a8a8",
"d c #a9a9a9",
"G c #afafaf",
"f c #cfcfcf",
"a c #d5d5d5",
"j c #d6d6d6",
"r c #dbdbdb",
"m c #ebebeb",
"I c #efefef",
"k c #fbfbfb",
"g c #ffffff",
"...............#....",
".............abcd...",
".............efghi..",
"...........aejggkhd.",
"...........blmggggn#",
"..........oplqrggfb.",
"........astplqqmjea.",
"........uvlwlllle...",
"......auxyzvAppba...",
"......svytvzlto.....",
".....BClzvtyvs......",
"...asCDEvzyxua......",
"...uvlEvElvu........",
".auxyzvEDCsa........",
".svytvzlCB..........",
".FGCvtyvs...........",
".HIJCyxua...........",
".KLIGvu.............",
".uKHFsa.............",
"...................."};
