/* XPM */
static const char *iconOpen[] = {
/* width height num_colors chars_per_pixel */
"    20    20        5            1",
/* colors */
". c #000000",
"# c #808000",
"a c none",
"b c #ffff00",
"c c #ffffff",
/* pixels */
"aaaaaaaaaaaaaaaaaaaa",
"aaaaaaaaaaaaaaaaaaaa",
"aaaaaaaaaaaaaaaaaaaa",
"aaaaaaaaaaaa...aaaaa",
"aaaaaaaaaaa.aaa.a.aa",
"aaaaaaaaaaaaaaaa..aa",
"aaaa...aaaaaaaa...aa",
"aaa.bcb.......aaaaaa",
"aaa.cbcbcbcbc.aaaaaa",
"aaa.bcbcbcbcb.aaaaaa",
"aaa.cbcb...........a",
"aaa.bcb.#########.aa",
"aaa.cb.#########.aaa",
"aaa.b.#########.aaaa",
"aaa..#########.aaaaa",
"aaa...........aaaaaa",
"aaaaaaaaaaaaaaaaaaaa",
"aaaaaaaaaaaaaaaaaaaa",
"aaaaaaaaaaaaaaaaaaaa",
"aaaaaaaaaaaaaaaaaaaa"
};
