/* XPM */
static const char *iconAE_big[] = {
/* width height num_colors chars_per_pixel */
"    32    32        7            1",
/* colors */
". c #000000",
"# c #800080",
"a c #c0c0c0",
"b c #808080",
"c c #ff0000",
"d c #ffff00",
"e c #ffffff",
/* pixels */
"................................",
".#c###cccc######c#ccccc#c#c###..",
".#cccc####..#ccc#c#cc#ccccc##...",
".c####cc#...###cc#cccccccc##....",
".#ccc#c#....bbccccc#c#ccccc#....",
".c#####c#c..bb#c#cccc#ccc##.....",
"..c#c#cccc..bbcc#cc#c#ccc#..e...",
".e..cc#c##..bb#c#cccccc#c..e....",
".eee..cccc..bbccc###c#c##.e.....",
".eeeee..cc..bb###cccc#c#.d......",
".eeeeeee..ccbbc##cccc##.ddd.....",
".eeeeeeeee..cccc#c####.ddddd....",
".eeeeeeeeeee..ccccc##.ddddddd...",
".eeeeeeeee..ee..cccc.dddddddde..",
".eeeeeeee...bbee..c.dddddddde.b.",
".aeeeeee....bbeeee.dddddddde.bb.",
".eaaeeeeee..bbeee.dddddddde.bb#.",
".eeeaaeeee..bbee.deeeeeeee.bbbc.",
".eeeeeaaee..bbe.ee........bbb#c.",
".e..eeeeaa..bb.e..bbbbbbbbbbccc.",
".e..eeeeeeabbe..bbbbbbbbbbb...c.",
".....e..........bbbbeeeeeeeaaa..",
".....e..........bbeeeeeeeeaeeea.",
".e..eeeaeebbbbbbbbbeeeeeeaeeeee.",
".e..eeaeeebbbbbbbbbeeeeeaeeeeee.",
".eeeeaeeeeeeeeeeeeeaaeeaeeeeeee.",
".eeeaeeeeeeeeeeeeeeeeaaeeeeeeee.",
".eeaeeeeeeeeeeeeeeeeeaeaaeeeeee.",
".eaeeeeeeeeeeeeeeeeeaeeeeaaeeee.",
".aeeeeeeeeeeeeeeeeeaeeeeeeeaaee.",
".eeeeeeeeeeeeeeeeeaeeeeeeeeeeaa.",
"................................"
};
