/* XPM */
static const char *iconElementary[] = {
/* width height num_colors chars_per_pixel */
"    20    20        4            1",
/* colors */
". c #000000",
"# c none",
"a c #808080",
"b c #ffffff",
/* pixels */
"######b#b###########",
"######.b.###########",
"######b.b#######b###",
"###bb#.a.###bbbb.###",
"##b..ba#a##b....a###",
"##.bb.#####...a.####",
"##....#####aa.#.####",
"##.aaa#######.#.####",
"##.bbb#######.#.####",
"##a...#######.#.####",
"###aaa#######a#a####",
"######b#############",
"##bb##.#bbb###b###b#",
"#b..##b#...b##.b#b.#",
"#.bb##.#.aa.##a.b.a#",
"#a..b#.#.##.###b.b##",
"#bbb.#.#.##.##b.a.b#",
"#...a#.#.##.##.a#a.#",
"#aaa##a#a##a##a###a#",
"####################"
};
