/* XPM */
static const char *iconOperations[] = {
/* width height num_colors chars_per_pixel */
"    20    20        4            1",
/* colors */
". c #000000",
"# c none",
"a c #808080",
"b c #ffffff",
/* pixels */
"####################",
"#####b##############",
"#####.##############",
"#####.##############",
"##bbb.bbb###bbbbbb##",
"##.......###......##",
"##aaa.aaa###aaaaaa##",
"#####.##############",
"#####.##############",
"#####a##############",
"##b#####b###########",
"##.b###b.########b##",
"##a.b#b.a#######b.##",
"###a.b.a#######b.a##",
"####a.a#######b.a###",
"###b.a.b#####b.a####",
"##b.a#a.b###b.a#####",
"##.a###a.###.a######",
"##a#####a###a#######",
"####################"
};
