/* XPM */
static const char *iconRelations[] = {
/* width height num_colors chars_per_pixel */
"    20    20        4            1",
/* colors */
". c #000000",
"# c none",
"a c #808080",
"b c #ffffff",
/* pixels */
"#b#######b##########",
"#.b#####b.##bbbbb###",
"#a.b###b.a##.....###",
"##a.b#b.a###aaaaa###",
"###b.#.b####bbbbb###",
"##b.a#a.b###.....###",
"#b.a###a.b##aaaaa###",
"#.a#####a.##########",
"#a#######a######b###",
"#b#######b######.###",
"#.b#####b.######.###",
"#a.b###b.a##bbb.b###",
"##a.b#b.a###.....###",
"###a.#.a####aaa.a###",
"###.b#b.####bbb.b###",
"##.ba#ab.###.....###",
"#.ba.#.ab.##aa.aa###",
"#ba.b#b.ab###.######",
"#a.b###b.a###.######",
"#.b#####b.###a######"
};
