/* XPM */
static char * iconParse2_xpm[] = {
"20 20 51 1",
" 	g None",
".	g None",
"+	g #AFAFAF",
"@	g #000000",
"#	g #A1A1A1",
"$	g #000606",
"%	g #002E2E",
"&	g #335858",
"*	g #808080",
"=	g #747474",
"-	g #5E5E5E",
";	g #264B4B",
">	g #000C0C",
",	g #005C5C",
"'	g #66B0B0",
")	g #FFFFFF",
"!	g #E8E8E8",
"~	g #4C9595",
"{	g #184646",
"]	g #597E7E",
"^	g #DEDEDE",
"/	g #D2D2D2",
"(	g #A1B3B3",
"_	g #639E9E",
":	g #266363",
"<	g #929292",
"[	g #AAAAAA",
"}	g #84A9A9",
"|	g #097E7E",
"1	g #003131",
"2	g #B4B4B4",
"3	g #80A8A8",
"4	g #428080",
"5	g #054242",
"6	g #395151",
"7	g #B6B6B6",
"8	g #090909",
"9	g #848484",
"0	g #429292",
"a	g #005656",
"b	g #979797",
"c	g #426A6A",
"d	g #1C4747",
"e	g #424242",
"f	g #213737",
"g	g #5E9C9C",
"h	g #002B2B",
"i	g #007B7B",
"j	g #001616",
"k	g #003E3E",
"l	g #B8B8B8",
"....................",
"....................",
".+@@@@@@@@@@@@@@@@@+",
".#@@@@@@@@@@@@@@@@@#",
".+@@$%&**=----;%$@@+",
"...@>,'))!....~,>@..",
"...@@{]^^/..(_:{@<..",
"....[@@.....}|1@[...",
"....2@@@#..3456@2.7.",
"......@89..0a$@.....",
"......b@-*.cd@b.....",
".......2@e.e@2......",
".......2@e.e@2......",
".......2@e.e@2......",
".......2@fgf@2......",
".......2@hih@2......",
".......2@jkj@.......",
".......2@@@@@.......",
".......l@@@@@.......",
"...................."};
