/* XPM */
static const char *iconOperands[] = {
/* width height num_colors chars_per_pixel */
"    20    20        4            1",
/* colors */
". c #000000",
"# c none",
"a c #808080",
"b c #ffffff",
/* pixels */
"####b####b##########",
"####.b##b.##########",
"####a.bb.a##########",
"#####a..a###########",
"#####b..b###########",
"####b.aa.b##b#######",
"####.a##a.#b.#######",
"####a####a#..#######",
"###########a.#######",
"####b####b##.#######",
"####.b##b.##.#######",
"####a.bb.a##a#######",
"#####a..a###########",
"#####b..b###bb######",
"####b.aa.b#b..b#####",
"####.a##a.#.ab.#####",
"####a####a#ab.a#####",
"###########b.bb#####",
"###########....#####",
"###########aaaa#####"
};
