/* XPM */
static const char *iconExecute[] = {
/* width height num_colors chars_per_pixel */
"    20    20        4            1",
/* colors */
". c #000000",
"# c none",
"a c #ffff00",
"b c #ffffff",
/* pixels */
"####################",
"#######..........###",
"#######.aabbbab.####",
"#######.bababab.####",
"#######.bbabbb.#####",
"######.bbabaa.######",
"######.abbab.#######",
"#####.bbaab.########",
"#####.aaba.....#####",
"####.abbababba.#####",
"####.....abaa.######",
"#######.abab.#######",
"######.aaaaa...#####",
"######.aaaaaaa.#####",
"#####.aaaaaaa.######",
"#####.....aa.#######",
"########.aa.########",
"########.a.#########",
"########..##########",
"########.###########"
};
