/* XPM */
static const char *iconCalculator[]={
"20 20 4 1",
". c None",
"a c #000000",
"b c #808080",
"# c #ffffff",
"....................",
"..################..",
".#aaaaaaaaaaaaaaaa#.",
".a................a.",
".a.aaaaaaaa.......a.",
".a.a######b.......a.",
".a.abbbbbbb.......a.",
".a................a.",
".a.##.##.##.##.##.a.",
".a.aa.aa.aa.aa.aa.a.",
".a................a.",
".a.##.##.##.##.##.a.",
".a.aa.aa.aa.aa.aa.a.",
".a................a.",
".a.##.##.##.#####.a.",
".a.aa.aa.aa.aaaaa.a.",
".a................a.",
".baaaaaaaaaaaaaaaab.",
"..bbbbbbbbbbbbbbbb..",
"...................."};
