/* XPM */
static const char *iconFind[] = {
/* width height num_colors chars_per_pixel */
"    20    20        3            1",
/* colors */
". c #000000",
"# c none",
"a c #ffffff",
/* pixels */
"####################",
"####################",
"####################",
"#####...###...######",
"#####.a.###.a.######",
"#####...###...######",
"####.....#.....#####",
"####.a...#.a...#####",
"###.............####",
"##..a...#..a.....###",
"##..a...#..a.....###",
"##..a......a.....###",
"##.......#.......###",
"##.a...#####.a...###",
"##.a...#####.a...###",
"##.....#####.....###",
"####################",
"####################",
"####################",
"####################"
};
