/* XPM */
static const char *iconConversions[] = {
/* width height num_colors chars_per_pixel */
"    20    20        4            1",
/* colors */
". c #000000",
"# c none",
"a c #808080",
"b c #ffffff",
/* pixels */
"####################",
"####################",
"####################",
"########bbb###b#####",
"######bb...bb#.#####",
"#####b..aaa..b.#####",
"####b.aa###bb..#####",
"####.a#####....#####",
"####a######aaaa#####",
"####################",
"####################",
"####bbbb######b#####",
"####....#####b.#####",
"####..bb###bb.a#####",
"####.a..bbb..a######",
"####.#aa...aa#######",
"####a###aaa#########",
"####################",
"####################",
"####################"
};
