/* XPM */
static const char *iconParam[]={
"20 20 2 1",
"# c #000000",
". c none",
"....................",
"....................",
".........####.......",
"........##..##......",
".......##...##......",
"......###...##......",
"......##...##.......",
"......##.##.........",
"......##...##.......",
".....##....##.......",
".....##....##.......",
".....##....##.......",
".....##...###.......",
"....###...##........",
"....##.####.........",
"....##..............",
"....##..............",
"...##...............",
"...##...............",
"...................."};
