/* XPM */
static const char * iconParse[] = {
"20 20 8 1",
" 	g None",
".	c none",
"+	c none",
"@	g #000000",
"#	g #007B7B",
"$	g #7B7B7B",
"%	g #FFFFFF",
"&	g #FFFF00",
"....................",
".+++++++++++++++++++",
".+@@@@@@@@@@@++++++.",
".++@#..+++#@+++++++.",
".+++@++++#@++++++++.",
".++++@++#@+++$%&&@+.",
".+++++@+@+++$%&&@@++",
".+++++@+@++$%&&@@+++",
".+++++@#@++$%&@@+++.",
".+++++@@@+$%&@@++++.",
".++++++++$%&&&&&@@+.",
".++++++++@@@@%&@@++.",
".++++++++++$%&@@+++.",
".+++++++++$%&@@++++.",
".+++++++++$&@@++++..",
".++++++++$&@@++++++.",
".+++++++++@@+++++++.",
".++++++++++++++++++.",
".++++++++++++++++++.",
"...................."};
