/* XPM */
static char * iconParser1_xpm[] = {
"20 20 2 1",
" 	g None",
".	g #000000",
"                    ",
"                    ",
"      ..........    ",
"    ..         ..   ",
"    ...       ...   ",
"    .  .......  .   ",
"    ..         ..   ",
"     ..       ..    ",
"      .       .     ",
"      ..     ..     ",
"       ..   ..      ",
"        .. ..       ",
"         . .        ",
"         . .        ",
"         . .        ",
"         . .        ",
"         . .        ",
"         . .        ",
"                    ",
"                    "};
